<svg width="1990" height="1990" viewBox="0 0 1990 1990" fill="none" xmlns="http://www.w3.org/2000/svg">
<path d="M90.4502 761.223C126.794 768.576 175.752 782.876 212.621 792.294L455.03 854.799C455.611 865.606 455.154 880.698 455.152 891.804L455.143 960.41L455.102 1173.03L455.066 1240.99C455.056 1252.62 454.538 1270.96 455.71 1281.92L680.352 1339.25C714.76 1348 753.815 1359.12 788.187 1366.49C788.945 1377.88 788.415 1395.31 788.407 1407.05L788.37 1484.02L788.413 1579.08C788.418 1596.81 788.891 1617.15 788.073 1634.57C725.05 1670.91 659.292 1708.45 597.011 1745.69L384.155 1869.41L324.057 1904.48C289.071 1924.87 272.262 1936.21 230.287 1936.85C162.525 1937.9 108.207 1891.88 92.3996 1826.98C89.5385 1815.23 90.3489 1793.1 90.3424 1780.22L90.3344 1723.53L90.3802 1515.66L90.4502 761.223Z" fill="#FEFEFE"/>
<path d="M116.372 794.881C145.917 801.665 177.35 810.659 206.918 818.231L428.76 875.072C428.175 923.838 428.659 973.535 428.658 1022.35L428.663 1301.75C451.189 1309.22 488.396 1317.65 512.366 1323.78L683.42 1367.43C700.398 1371.55 717.329 1375.87 734.209 1380.37C742.676 1382.54 753.775 1384.91 761.876 1387.58C761.863 1463.09 763.173 1544 761.791 1619.13C741.5 1631.59 720.452 1643.08 699.984 1655.28C696.04 1657.63 691.103 1660.76 686.959 1662.59C595.611 1716.98 501.502 1770.7 409.411 1824.07L325.253 1873.05C310.801 1881.49 288.563 1895.27 274.037 1901.64C258.671 1908.51 241.94 1911.78 225.12 1911.19C194.986 1909.81 166.611 1896.6 146.138 1874.45C129.973 1856.96 119.77 1834.79 116.994 1811.14C115.293 1797.33 115.867 1777.85 115.87 1763.53L115.922 1685.27L115.944 1430.46L115.932 1010.14L115.915 873.68C115.909 848.655 115.23 819.676 116.372 794.881Z" fill="url(#paint0_linear_2452_190)"/>
<path d="M217.385 53.8443C236.073 50.7866 266.685 56.3934 283.955 64.0081C297.933 70.172 312.858 79.5499 326.221 87.3962L370.702 112.944C499.605 187.312 627.199 261.782 759.489 330.101C768.621 334.817 780.412 340.408 788.453 346.602L788.379 1101.75C771.759 1098.34 754.025 1093.48 737.485 1089.27C720.84 1085.06 702.63 1080.89 686.325 1075.86C670.917 1073.05 647.943 1066.35 632.213 1062.39C597.929 1053.73 563.043 1045.04 528.893 1035.91C527.728 989.238 528.778 938.012 528.774 891.051L528.759 609.262C520.906 606.097 489.548 598.704 480.155 596.311L384.327 571.716L192.409 522.344C158.691 513.67 124.244 504.211 90.4148 496.265C89.7957 425.154 89.7765 354.039 90.3568 282.928L90.2894 215.925C90.282 199.55 89.5207 180.316 92.5597 164.507C97.0757 141.679 107.33 120.375 122.356 102.604C146.903 73.4283 179.632 57.1508 217.385 53.8443Z" fill="#FEFEFE"/>
<path d="M199.053 83.6569C231.283 74.7617 260 79.7474 289.019 96.2013L488.594 211.677C513.348 225.959 538.82 241.211 563.815 254.885L695.688 325.983C710.865 334.118 749.209 353.517 761.932 362.44L761.801 1067.84C730.911 1061.41 694.451 1051.09 663.492 1043.08C628.297 1033.97 590.155 1025.35 555.513 1015.48C554.102 967.621 555.267 913.346 555.273 865.028L555.302 588.856C528.076 580.549 495.073 572.898 467.158 565.732L318.034 527.425C292.894 521.022 257.993 512.925 233.869 505.21C227.627 504.725 202.398 497.756 194.733 495.756C168.615 488.877 142.459 482.147 116.264 475.568C115.418 453.899 115.903 429.968 115.895 408.139L115.88 291.785L115.888 224.246C115.893 178.142 116.158 141.565 153.828 108.108C166.817 96.5728 181.903 87.4142 199.053 83.6569Z" fill="url(#paint1_linear_2452_190)"/>
<path d="M1189.16 579.398C1202.87 586.269 1217.4 595.318 1230.79 603.213L1294.64 640.986L1472.75 746.177L1618.37 832.296C1644.27 847.53 1673.3 863.161 1697.82 880.051C1746.08 913.297 1766.08 977.587 1749.02 1033.4C1742.01 1056.1 1729.33 1076.64 1712.18 1093.09C1691.71 1112.56 1642.96 1137.54 1616.46 1153.28C1596.52 1165.1 1568.86 1181.89 1548.95 1192.52L1312.36 1330.02C1274.55 1351.99 1227.57 1381.27 1189.31 1401.05C1187.8 1366.26 1188.91 1323.47 1188.91 1288.23L1188.92 1079.58L1188.91 757.209C1188.91 698.287 1188.29 638.172 1189.16 579.398ZM1375.09 1077.7C1384.41 1073.66 1399.73 1064.15 1408.91 1058.84L1468.7 1024.06C1480.39 1017.51 1512.97 999.547 1523 992.191C1487.3 974.05 1449.27 948.797 1413.62 929.298C1407.23 925.811 1380.61 909.41 1375.27 907.792C1373.99 956.084 1375.64 1004.93 1375 1053.27C1374.9 1061.32 1374.89 1069.67 1375.09 1077.7Z" fill="#FEFEFE"/>
<path d="M1215.77 624.369C1221.63 629.089 1236.78 637.539 1243.84 641.708L1297.69 673.458L1560.03 828.484L1640.22 875.791C1669.01 892.836 1694.61 904.384 1712.5 934.35C1728.08 960.168 1732.64 991.171 1725.11 1020.38C1710.76 1075.58 1669.81 1091.8 1624.73 1117.95L1540.55 1166.92C1521.82 1176.9 1500.17 1190.29 1481.6 1201.11L1368.74 1266.76L1269.9 1324.16C1253.15 1333.89 1231.3 1345.73 1215.47 1356.32C1214.5 1305.47 1215.28 1252.23 1215.28 1201.24L1215.29 908.448L1215.28 723.019C1215.28 693.125 1214.04 653.278 1215.77 624.369ZM1375.09 1077.7C1384.41 1073.66 1399.73 1064.15 1408.91 1058.84L1468.7 1024.06C1480.39 1017.51 1512.97 999.547 1523 992.192C1487.3 974.05 1449.27 948.797 1413.62 929.299C1407.23 925.811 1380.61 909.41 1375.27 907.793C1373.99 956.084 1375.64 1004.93 1375 1053.27C1374.9 1061.32 1374.89 1069.67 1375.09 1077.7Z" fill="#FDB017"/>
<path d="M1348.59 861.875C1355.04 864.283 1367.89 872.199 1374.21 875.889L1418.67 901.809L1575.09 992.435C1566.58 998.333 1553.78 1005.29 1544.51 1010.66L1491.92 1041.11L1404.61 1091.79C1386.74 1102.14 1366.65 1114.38 1348.61 1123.75L1348.59 861.875ZM1375.09 1077.7C1384.41 1073.66 1399.73 1064.15 1408.91 1058.84L1468.7 1024.06C1480.39 1017.51 1512.97 999.547 1523 992.192C1487.3 974.051 1449.27 948.798 1413.62 929.299C1407.23 925.811 1380.61 909.411 1375.27 907.793C1373.99 956.084 1375.64 1004.93 1375 1053.27C1374.9 1061.32 1374.89 1069.67 1375.09 1077.7Z" fill="#FEFEFE"/>
<path d="M862.696 397.393C870.059 400.013 884.797 409.226 892.082 413.483L941.818 442.409C998.226 475.051 1059.32 508.758 1114.8 542.548L1114.83 1444.29C1106.25 1450.41 1087.61 1460.43 1078.03 1465.95L1017.68 1500.84C967.499 1530.49 913.672 1562.41 862.936 1590.86C861.605 1580.34 862.269 1554.44 862.275 1542.99L862.337 1453L862.349 1152.04L862.334 650.653L862.305 487.69C862.3 459.668 861.405 425.027 862.696 397.393Z" fill="#FEFEFE"/>
<path d="M889.028 442.527C905.53 450.61 929.968 466.302 946.919 475.852C994.038 502.398 1040.74 531.105 1088.15 557.067C1089.59 654.873 1088.29 756.157 1088.29 854.195L1088.25 1429.1C1065.78 1443.69 1038.56 1457.6 1015.22 1471.9C982.834 1489.49 951.165 1509.65 918.914 1527.63C909.167 1533.06 898.278 1539.26 889.219 1545.7C888.008 1529.03 888.628 1506.51 888.624 1489.35L888.626 1391.77L888.641 1087.6L888.651 663.105L888.632 523.313C888.629 497.182 888.064 468.391 889.028 442.527Z" fill="url(#paint2_linear_2452_190)"/>
<defs>
<linearGradient id="paint0_linear_2452_190" x1="115.709" y1="1353.07" x2="762.425" y2="1353.07" gradientUnits="userSpaceOnUse">
<stop stop-color="#39283F"/>
<stop offset="1" stop-color="#64303B"/>
</linearGradient>
<linearGradient id="paint1_linear_2452_190" x1="761.932" y1="573.568" x2="115.764" y2="573.568" gradientUnits="userSpaceOnUse">
<stop offset="0.252958" stop-color="#64303B"/>
<stop offset="1" stop-color="#39283F"/>
</linearGradient>
<linearGradient id="paint2_linear_2452_190" x1="888.465" y1="994.113" x2="1088.83" y2="994.113" gradientUnits="userSpaceOnUse">
<stop offset="0.418269" stop-color="#F57923"/>
<stop offset="1" stop-color="#FDB017"/>
</linearGradient>
</defs>
</svg>
