<svg width="1990" height="1990" viewBox="0 0 1990 1990" fill="none" xmlns="http://www.w3.org/2000/svg">
<path d="M468 66.0007C484.047 66.0016 906.993 70.0798 920.7 66C923.105 109.022 921.438 162.95 921.429 206.576L921.375 460.279L921.346 1240.85L921.37 1709.39L921.484 1849.48C921.484 1869.5 921.484 1909 921.484 1924.5L468 1924.01V66.0007Z" fill="white"/>
<path d="M881.084 107.039C849.192 107.039 807.7 107.039 774.294 107.039C672.071 106.528 601.25 104.999 508.381 105C505.706 260.131 509.644 628.703 509.644 784.201L509.643 1881C559.826 1881 603.922 1881 651.358 1881C718.171 1881 762.267 1881 826.407 1881C852.463 1881 859.813 1881 879.993 1881C879.993 1855.34 881.092 1818.84 881.099 1791.63L881.095 1636.86L881.066 1154.41L881.048 481.112L881.084 259.386C881.09 217.94 882.877 148.061 881.084 107.039Z" fill="url(#paint0_linear_2452_202)"/>
<path d="M1042 66.0007C1058.05 66.0016 1480.99 70.0798 1494.7 66C1497.1 109.022 1495.44 162.95 1495.43 206.576L1495.38 460.279L1495.35 1240.85L1495.37 1709.39L1495.48 1849.48C1495.48 1869.5 1495.48 1909 1495.48 1924.5L1042 1924.01V66.0007Z" fill="white"/>
<path d="M1455.08 107.039C1423.19 107.039 1381.7 107.039 1348.29 107.039C1246.07 106.528 1175.25 104.999 1082.38 105C1079.71 260.131 1083.64 628.703 1083.64 784.201L1083.64 1881C1133.83 1881 1177.92 1881 1225.36 1881C1292.17 1881 1336.27 1881 1400.41 1881C1426.46 1881 1433.81 1881 1453.99 1881C1453.99 1855.34 1455.09 1818.84 1455.1 1791.63L1455.1 1636.86L1455.07 1154.41L1455.05 481.112L1455.08 259.386C1455.09 217.94 1456.88 148.061 1455.08 107.039Z" fill="url(#paint1_linear_2452_202)"/>
<defs>
<linearGradient id="paint0_linear_2452_202" x1="881.394" y1="1006.12" x2="508.638" y2="1006.12" gradientUnits="userSpaceOnUse">
<stop stop-color="#64303B"/>
<stop offset="1" stop-color="#39283F"/>
</linearGradient>
<linearGradient id="paint1_linear_2452_202" x1="1455.39" y1="1006.12" x2="1082.64" y2="1006.12" gradientUnits="userSpaceOnUse">
<stop stop-color="#FDB017"/>
<stop offset="1" stop-color="#F57923"/>
</linearGradient>
</defs>
</svg>
